<mxfile host="app.diagrams.net" modified="2022-05-10T14:22:50.468Z" agent="5.0 (Windows NT 10.0; Win64; x64) AppleWebKit/537.36 (KHTML, like Gecko) Chrome/101.0.4951.54 Safari/537.36 Edg/101.0.1210.39" etag="yqRspd8xmh6e59Afu82_" version="18.0.2" type="github">
  <diagram id="7QIVbSG0y3adnFoaJVKs" name="Page-1">
    <mxGraphModel dx="1038" dy="579" grid="1" gridSize="10" guides="1" tooltips="1" connect="1" arrows="1" fold="1" page="1" pageScale="1" pageWidth="850" pageHeight="1100" math="0" shadow="0">
      <root>
        <mxCell id="0" />
        <mxCell id="1" parent="0" />
        <mxCell id="rGE1s3FXnuXDEtrF2hhU-1" value="" style="edgeStyle=orthogonalEdgeStyle;rounded=0;orthogonalLoop=1;jettySize=auto;html=1;" parent="1" source="rGE1s3FXnuXDEtrF2hhU-2" target="rGE1s3FXnuXDEtrF2hhU-4" edge="1">
          <mxGeometry relative="1" as="geometry" />
        </mxCell>
        <mxCell id="rGE1s3FXnuXDEtrF2hhU-2" value="start" style="rounded=1;whiteSpace=wrap;html=1;" parent="1" vertex="1">
          <mxGeometry x="40" y="40" width="90" height="20" as="geometry" />
        </mxCell>
        <mxCell id="rGE1s3FXnuXDEtrF2hhU-3" value="" style="edgeStyle=orthogonalEdgeStyle;rounded=0;orthogonalLoop=1;jettySize=auto;html=1;" parent="1" source="rGE1s3FXnuXDEtrF2hhU-4" target="rGE1s3FXnuXDEtrF2hhU-5" edge="1">
          <mxGeometry relative="1" as="geometry" />
        </mxCell>
        <mxCell id="rGE1s3FXnuXDEtrF2hhU-4" value="Assign the agent id" style="rounded=0;whiteSpace=wrap;html=1;" parent="1" vertex="1">
          <mxGeometry x="25" y="110" width="120" height="60" as="geometry" />
        </mxCell>
        <mxCell id="rGE1s3FXnuXDEtrF2hhU-5" value="end" style="ellipse;whiteSpace=wrap;html=1;rounded=0;" parent="1" vertex="1">
          <mxGeometry x="25" y="210" width="120" height="60" as="geometry" />
        </mxCell>
      </root>
    </mxGraphModel>
  </diagram>
</mxfile>
